<svg xmlns="http://www.w3.org/2000/svg" viewBox="0 0 64 64">
  <!-- Background circle with light blue gradient -->
  <defs>
    <linearGradient id="bgGradient" x1="0%" y1="0%" x2="100%" y2="100%">
      <stop offset="0%" style="stop-color:#87CEEB;stop-opacity:1" />
      <stop offset="100%" style="stop-color:#4682B4;stop-opacity:1" />
    </linearGradient>
  </defs>
  
  <!-- Background -->
  <circle cx="32" cy="32" r="30" fill="url(#bgGradient)"/>
  
  <!-- Robot head (simplified) -->
  <rect x="18" y="20" width="28" height="24" rx="4" fill="#FFFFFF" opacity="0.95"/>
  <rect x="18" y="20" width="28" height="24" rx="4" fill="none" stroke="#4682B4" stroke-width="2"/>
  
  <!-- Robot eyes -->
  <circle cx="26" cy="30" r="3" fill="#4682B4"/>
  <circle cx="38" cy="30" r="3" fill="#4682B4"/>
  
  <!-- Robot antenna -->
  <line x1="32" y1="20" x2="32" y2="14" stroke="#4682B4" stroke-width="2" stroke-linecap="round"/>
  <circle cx="32" cy="14" r="2" fill="#4682B4"/>
  
  <!-- Magic wand (diagonal) -->
  <line x1="38" y1="38" x2="50" y2="26" stroke="#FFD700" stroke-width="3" stroke-linecap="round"/>
  <circle cx="50" cy="26" r="3" fill="#FFD700"/>
  
  <!-- Sparkle stars -->
  <path d="M 45 20 L 46 23 L 49 23 L 46.5 25 L 47.5 28 L 45 26 L 42.5 28 L 43.5 25 L 41 23 L 44 23 Z" fill="#FFFFFF" opacity="0.9"/>
  <path d="M 48 18 L 48.5 19.5 L 50 19.5 L 48.75 20.5 L 49.25 22 L 48 21 L 46.75 22 L 47.25 20.5 L 46 19.5 L 47.5 19.5 Z" fill="#FFFFFF" opacity="0.9"/>
</svg>

